<?xml version="1.0" standalone="no"?>
<!DOCTYPE svg PUBLIC "-//W3C//DTD SVG 20010904//EN"
 "http://www.w3.org/TR/2001/REC-SVG-20010904/DTD/svg10.dtd">
<svg version="1.0" xmlns="http://www.w3.org/2000/svg"
 width="700.000000pt" height="700.000000pt" viewBox="0 0 700.000000 700.000000"
 preserveAspectRatio="xMidYMid meet">
<metadata>
Created by potrace 1.14, written by Peter Selinger 2001-2017
</metadata>
<g transform="translate(0.000000,700.000000) scale(0.100000,-0.100000)"
fill="#000000" stroke="none">
<path d="M3345 6984 c-172 -32 -417 -105 -720 -214 -145 -53 -424 -162 -500
-195 -631 -281 -957 -459 -1093 -597 -110 -112 -209 -272 -367 -588 -109 -218
-118 -237 -202 -430 -152 -348 -348 -884 -398 -1090 -59 -243 -71 -342 -56
-468 51 -414 482 -1524 808 -2080 163 -277 243 -356 543 -527 82 -47 494 -255
505 -255 3 0 40 -16 82 -36 404 -187 1024 -408 1333 -475 120 -26 303 -31 385
-11 28 6 64 14 80 17 45 7 235 61 375 106 737 239 1604 651 1845 876 66 61
148 181 258 373 27 48 199 393 227 455 92 207 113 252 120 270 4 11 15 36 23
55 29 67 137 339 137 345 0 4 6 21 14 38 17 37 90 249 136 391 41 130 85 301
103 399 16 87 15 254 -1 327 -6 25 -13 57 -16 71 -39 223 -273 877 -465 1302
-11 26 -30 68 -42 95 -26 59 -209 424 -238 475 -149 263 -223 355 -368 459
-183 130 -600 344 -998 510 -66 27 -133 56 -150 63 -154 68 -740 272 -832 289
-10 2 -38 9 -63 16 -44 12 -58 15 -110 25 -14 3 -36 7 -50 10 -66 14 -230 14
-305 -1z m340 -415 c331 -68 930 -290 1400 -519 167 -82 322 -164 390 -208 22
-14 58 -37 80 -51 124 -78 202 -169 323 -379 243 -418 569 -1215 671 -1643 56
-233 57 -300 7 -511 -44 -185 -201 -664 -227 -693 -5 -5 -9 -15 -9 -21 0 -13
-112 -288 -154 -379 -13 -27 -43 -93 -67 -145 -116 -253 -261 -516 -351 -635
-66 -87 -139 -146 -298 -241 -454 -272 -1307 -615 -1791 -720 -66 -14 -249
-21 -267 -10 -4 2 -24 7 -46 10 -114 18 -487 132 -693 211 -625 240 -1132 494
-1320 660 -53 46 -124 142 -192 260 -29 50 -59 101 -67 115 -27 46 -186 374
-219 450 -18 41 -41 95 -53 120 -125 278 -296 761 -351 991 -59 245 -58 309 5
559 153 601 602 1609 835 1874 95 108 400 287 774 456 28 12 73 33 100 45 78
36 243 105 250 105 3 0 24 9 48 20 23 10 60 25 82 33 22 8 94 35 160 59 256
97 581 191 702 204 32 3 59 7 60 8 7 7 131 -8 218 -25z"/>
<path d="M1327 5291 c-13 -15 -18 -1524 -5 -1544 9 -14 330 -19 366 -5 l24 8
-6 393 c-3 215 -7 410 -10 432 -2 22 -7 72 -10 111 -4 39 -8 81 -11 92 -2 11
3 26 10 32 11 9 18 1 35 -37 34 -78 173 -427 230 -578 29 -77 57 -144 62 -150
10 -12 306 -15 329 -4 9 5 29 43 44 86 82 227 256 655 277 681 14 17 28 -2 23
-32 -20 -126 -27 -307 -28 -694 0 -248 3 -336 11 -341 17 -10 358 -8 369 2 10
11 12 1532 2 1549 -6 9 -77 12 -264 12 -141 1 -261 -1 -265 -4 -5 -3 -26 -52
-48 -110 -22 -58 -72 -188 -111 -289 -40 -101 -89 -242 -111 -314 -56 -184
-61 -186 -104 -42 -27 86 -153 438 -181 500 -7 17 -30 77 -50 135 -20 58 -41
109 -46 114 -4 5 -123 9 -264 10 -206 1 -259 -2 -268 -13z"/>
<path d="M4749 5298 c-19 -7 -19 -24 -19 -783 0 -426 3 -776 8 -776 27 -6
1094 -4 1103 2 13 8 19 273 7 292 -5 9 -106 12 -365 12 l-358 1 -3 619 c-1
370 -6 623 -12 629 -11 11 -332 14 -361 4z"/>
<path d="M3265 4811 c-3 -5 34 -103 81 -218 106 -256 219 -550 274 -714 22
-68 47 -129 55 -135 15 -11 418 -14 429 -3 3 3 30 77 60 165 30 87 78 220 107
294 29 74 54 137 54 140 1 3 7 19 14 35 119 288 172 426 166 435 -10 16 -370
14 -383 -2 -13 -17 -118 -291 -149 -389 -13 -42 -34 -123 -47 -180 -17 -75
-28 -105 -39 -107 -11 -2 -18 6 -22 25 -42 188 -88 335 -166 536 l-51 127
-188 0 c-106 0 -191 -4 -195 -9z"/>
<path d="M3617 3314 c-1 -1 -36 -4 -77 -7 -258 -21 -444 -156 -488 -352 -13
-57 -6 -192 12 -243 52 -147 165 -224 501 -341 206 -72 238 -85 292 -122 54
-38 66 -68 50 -129 -33 -125 -278 -138 -647 -35 -99 28 -127 33 -136 23 -7 -7
-29 -56 -49 -108 -60 -153 -65 -169 -54 -176 16 -10 208 -64 315 -89 119 -28
204 -37 334 -37 418 1 640 163 640 467 -1 230 -122 355 -455 466 -33 11 -69
24 -80 29 -11 4 -69 25 -130 45 -156 54 -204 90 -205 155 0 84 87 132 238 132
37 0 81 -3 97 -6 102 -19 141 -28 232 -54 56 -16 107 -26 113 -22 5 3 35 67
64 141 42 103 52 137 43 146 -13 12 -230 78 -311 94 -78 15 -289 31 -299 23z"/>
<path d="M5101 3308 c-230 -24 -389 -116 -464 -268 -31 -62 -32 -70 -32 -185
1 -146 12 -179 95 -274 63 -72 191 -132 545 -253 155 -53 225 -109 225 -178 0
-30 -7 -46 -33 -73 -41 -44 -96 -60 -207 -60 -136 0 -189 9 -392 62 -80 21
-150 36 -156 32 -6 -4 -34 -66 -63 -139 -40 -103 -49 -136 -40 -145 10 -10 74
-31 221 -72 136 -38 282 -57 425 -57 130 1 194 8 282 32 234 64 352 200 357
414 7 260 -112 373 -549 521 -93 32 -188 66 -210 75 -148 63 -149 187 -2 236
93 31 227 20 427 -36 41 -12 93 -23 115 -26 l40 -6 53 134 c28 73 52 139 52
145 0 10 -179 74 -245 87 -11 3 -41 9 -66 15 -96 22 -267 30 -378 19z"/>
<path d="M1322 3273 c-11 -22 -9 -1523 1 -1540 12 -19 360 -18 376 0 7 9 11
103 10 293 0 153 0 294 1 313 l0 33 63 -4 c76 -5 152 -39 223 -99 48 -41 124
-134 149 -183 38 -72 190 -334 203 -348 13 -16 36 -18 206 -18 105 0 197 4
205 9 11 7 -18 63 -134 262 -81 140 -163 278 -182 307 -48 71 -140 153 -224
197 -38 20 -69 38 -69 39 0 2 33 19 73 39 136 65 188 126 349 417 11 19 51 90
90 157 38 67 67 127 63 132 -4 7 -75 11 -199 11 -171 0 -195 -2 -208 -17 -8
-10 -62 -101 -119 -202 -82 -146 -118 -199 -169 -251 -89 -90 -166 -129 -272
-135 -48 -3 -48 -3 -48 28 -1 18 -1 149 -1 292 0 169 -4 264 -11 272 -8 10
-55 13 -189 13 -160 0 -179 -2 -187 -17z"/>
</g>
</svg>
