<svg xmlns="http://www.w3.org/2000/svg" viewBox="0 0 1000 1000"><style>path{fill:#000}@media (prefers-color-scheme:dark){path{fill:#fff}}</style><path d="M500 0c66.304 0 306.669 99.563 353.553 146.447C900.437 193.331 1000 433.696 1000 500c0 66.304-99.563 306.669-146.447 353.553C806.669 900.437 566.304 1000 500 1000c-66.304 0-306.669-99.563-353.553-146.447C99.563 806.669 0 566.304 0 500c0-66.304 99.563-306.669 146.447-353.553C193.331 99.563 433.696 0 500 0Zm0 58c-58.613 0-271.096 88.013-312.541 129.459C146.013 228.904 58 441.387 58 500s88.013 271.096 129.459 312.541C228.904 853.987 441.387 942 500 942s271.096-88.013 312.541-129.459C853.987 771.096 942 558.613 942 500s-88.013-271.096-129.459-312.541C771.096 146.013 558.613 58 500 58Zm-64.819 188.474c0-2.529-1.728-4.111-4.492-4.111h-69.465c-2.767 0-4.496 1.265-5.188 3.479-2.076 6.957-4.843 15.179-7.61 21.504l-18.677 47.752c-5.188 13.914-11.414 33.521-15.219 48.067-1.037 3.795-4.496 3.795-5.534 0-3.804-14.23-10.722-33.52-16.256-48.067l-17.986-47.752c-2.421-6.325-5.188-14.547-7.609-21.504-.692-2.53-2.421-3.479-4.842-3.479h-69.812c-2.764 0-4.491 1.582-4.491 4.111v215.95c0 2.53 1.727 4.112 4.491 4.112h46.988c2.764 0 4.492-1.582 4.492-4.112v-66.707c0-23.701-1.382-56.585-4.837-79.67-.691-4.428 3.455-5.376 5.183-1.265 3.459 8.538 7.263 16.76 10.722 25.298l19.024 48.369c3.458 8.216 7.609 20.225 11.759 31.602.692 2.528 2.422 3.476 4.843 3.476h41.851c2.421 0 4.151-.948 4.842-3.476 4.151-11.377 8.301-23.386 11.414-31.602l19.024-48.052c3.804-8.539 7.609-17.077 11.068-25.615 1.382-4.111 5.528-3.163 4.837 1.265-3.455 23.085-4.146 55.969-4.146 79.67v66.707c0 2.53 1.728 4.112 4.492 4.112h46.642c2.764 0 4.492-1.582 4.492-4.112v-215.95Zm208.66 69.576c1.383-2.848 0-4.748-3.457-4.748h-47.352c-2.419 0-4.147.95-5.184 3.166l-10.369 26.585c-9.333 22.787-16.245 47.473-19.01 66.462-.692 4.112-5.531 4.112-6.222 0-3.456-18.989-10.369-43.359-19.355-66.462l-10.37-26.585c-1.036-2.216-2.765-3.166-5.184-3.166h-47.352c-3.457 0-4.839 1.9-3.457 4.748l23.849 57.917c12.789 31.966 25.232 65.43 32.49 89.097.691 2.209 2.42 3.472 4.839 3.472h55.302c2.419 0 4.147-1.263 4.839-3.472 7.258-23.983 19.701-57.764 32.489-89.097l23.504-57.917Zm87.663 105.936V246.474c0-2.53-1.728-4.111-4.492-4.111h-46.988c-2.764 0-4.492 1.581-4.492 4.111v215.954c0 2.528 1.728 4.108 4.492 4.108h151.752c2.766 0 4.495-1.58 4.495-4.108v-36.335c0-2.528-1.729-4.107-4.495-4.107H731.504Zm-342.31 112.743c1.728-2.846.345-4.743-3.112-4.743H335.6c-2.421 0-4.15.949-5.187 2.846l-26.278 46.171c-13.485 23.401-33.54 37.632-53.249 37.632h-6.915v-82.538c0-2.53-1.728-4.111-4.492-4.111h-46.988c-2.764 0-4.491 1.581-4.491 4.111v215.951c0 2.53 1.727 4.111 4.491 4.111h46.988c2.764 0 4.492-1.581 4.492-4.111v-88.863h7.261c19.709 0 40.455 15.496 55.323 41.111l28.007 49.017c1.038 1.897 2.766 2.846 5.187 2.846h51.519c3.804 0 5.187-1.898 3.458-4.744l-40.109-68.94c-10.719-19.29-25.241-32.244-45.296-40.459-2.42-.948-1.729-3.16 0-3.792 18.672-6.635 32.502-18.009 43.221-37.298l36.652-64.197Zm139.194 133.124c19.03 6.643 31.139 13.918 31.139 23.408 0 16.765-15.915 20.878-34.598 20.878-14.878 0-30.101-1.898-50.491-7.592l-24.185-6.643c-2.764-.949-4.492 0-5.528 2.531l-13.823 35.085c-.692 2.528 0 4.108 3.112 5.055l22.803 6.636c28.677 8.531 47.353 10.426 68.112 10.426 58.784 0 90.915-23.065 90.915-66.376 0-34.48-17.275-50.929-65.313-67.378l-29.062-9.806c-19.721-6.643-30.447-11.705-30.447-22.776 0-11.388 13.148-18.979 32.523-18.979 14.185 0 27.332 2.846 41.165 6.642l20.385 5.694c2.764.949 4.491 0 5.528-2.531l14.165-35.398c.691-2.528 0-4.108-3.109-5.056l-22.803-6.951c-16.585-5.055-35.264-8.215-55.331-8.215-54.635 0-88.84 23.381-88.84 64.794 0 34.48 17.275 50.296 64.621 66.429l29.062 10.123Zm222.156 0c19.029 6.643 31.139 13.918 31.139 23.408 0 16.765-15.916 20.878-34.599 20.878-14.877 0-30.1-1.898-50.49-7.592l-24.185-6.643c-2.764-.949-4.492 0-5.528 2.531l-13.823 35.085c-.692 2.528 0 4.108 3.111 5.055l22.804 6.636c28.677 8.531 47.352 10.426 68.111 10.426 58.784 0 90.916-23.065 90.916-66.376 0-34.48-17.275-50.929-65.313-67.378l-29.063-9.806c-19.721-6.643-30.446-11.705-30.446-22.776 0-11.388 13.147-18.979 32.522-18.979 14.186 0 27.333 2.846 41.166 6.642l20.384 5.694c2.764.949 4.492 0 5.528-2.531l14.166-35.398c.691-2.528 0-4.108-3.109-5.056l-22.804-6.951c-16.584-5.055-35.264-8.215-55.331-8.215-54.634 0-88.839 23.381-88.839 64.794 0 34.48 17.275 50.296 64.62 66.429l29.063 10.123Z"/></svg>